<?xml version="1.0" encoding="UTF-8" standalone="no" ?>
<!DOCTYPE svg PUBLIC "-//W3C//DTD SVG 1.1//EN" "http://www.w3.org/Graphics/SVG/1.1/DTD/svg11.dtd">
<svg xmlns="http://www.w3.org/2000/svg" xmlns:xlink="http://www.w3.org/1999/xlink" version="1.1" width="1080" height="1080" viewBox="0 0 1080 1080" xml:space="preserve">
<desc>Created with Fabric.js 5.2.4</desc>
<defs>
</defs>
<rect x="0" y="0" width="100%" height="100%" fill="transparent"></rect>
<g transform="matrix(1 0 0 1 540 540)" id="c1ff4c38-69b6-4800-a512-73e5a6b3c70b"  >
</g>
<g transform="matrix(1 0 0 1 540 540)" id="702387da-1bcb-47da-9143-a4547831abe5"  >
<rect style="stroke: none; stroke-width: 1; stroke-dasharray: none; stroke-linecap: butt; stroke-dashoffset: 0; stroke-linejoin: miter; stroke-miterlimit: 4; fill: rgb(255,255,255); fill-rule: nonzero; opacity: 1; visibility: hidden;" vector-effect="non-scaling-stroke"  x="-540" y="-540" rx="0" ry="0" width="1080" height="1080" />
</g>
<g transform="matrix(2.41 0 0 2.41 540 540)"  >
<path style="stroke: rgb(175,175,175); stroke-opacity: 0.87; stroke-width: 1; stroke-dasharray: none; stroke-linecap: butt; stroke-dashoffset: 0; stroke-linejoin: miter; stroke-miterlimit: 4; fill: rgb(175,175,175); fill-opacity: 0.87; fill-rule: nonzero; opacity: 1;"  transform=" translate(-224, -256)" d="M 64 80 C 55.2 80 48 87.2 48 96 L 48 416 C 48 424.8 55.2 432 64 432 L 384 432 C 392.8 432 400 424.8 400 416 L 400 96 C 400 87.2 392.8 80 384 80 L 64 80 z M 0 96 C 0 60.7 28.7 32 64 32 L 384 32 C 419.3 32 448 60.7 448 96 L 448 416 C 448 451.3 419.3 480 384 480 L 64 480 C 28.700000000000003 480 0 451.3 0 416 L 0 96 z" stroke-linecap="round" />
</g>
<g transform="matrix(1.39 0 0 1.39 540.25 540.25)"  >
<path style="stroke: rgb(175,175,175); stroke-opacity: 0.87; stroke-width: 1; stroke-dasharray: none; stroke-linecap: butt; stroke-dashoffset: 0; stroke-linejoin: miter; stroke-miterlimit: 4; fill: rgb(175,175,175); fill-opacity: 0.87; fill-rule: nonzero; opacity: 1;"  transform=" translate(-256, -256)" d="M 416 398.9 C 474.5 357.79999999999995 512 294.79999999999995 512 223.99999999999997 C 512 100.3 397.4 0 256 0 C 114.60000000000002 0 0 100.3 0 224 C 0 294.7 37.5 357.8 96 398.9 C 96 399.29999999999995 96 399.59999999999997 96 400 L 96 464 C 96 490.5 117.5 512 144 512 L 192 512 L 192 464 C 192 455.2 199.2 448 208 448 C 216.8 448 224 455.2 224 464 L 224 512 L 288 512 L 288 464 C 288 455.2 295.2 448 304 448 C 312.8 448 320 455.2 320 464 L 320 512 L 368 512 C 394.5 512 416 490.5 416 464 L 416 400 C 416 399.6 416 399.3 416 398.9 z M 96 256 C 96 220.65377601082923 124.65377601082922 192 160 192 C 195.34622398917077 192 224 220.6537760108292 224 255.99999999999997 C 224 291.34622398917077 195.34622398917077 320 160 320 C 124.65377601082922 320 96 291.34622398917077 96 256 z M 352 192 C 387.34622398917077 192 416 220.6537760108292 416 256 C 416 291.34622398917077 387.3462239891708 320 352 320 C 316.65377601082923 320 288 291.34622398917077 288 256 C 288 220.65377601082923 316.65377601082923 192 352 192 z" stroke-linecap="round" />
</g>
<g transform="matrix(NaN NaN NaN NaN 0 0)"  >
<g style=""   >
</g>
</g>
<g transform="matrix(NaN NaN NaN NaN 0 0)"  >
<g style=""   >
</g>
</g>
<g transform="matrix(NaN NaN NaN NaN 0 0)"  >
<g style=""   >
</g>
</g>
<g transform="matrix(NaN NaN NaN NaN 0 0)"  >
<g style=""   >
</g>
</g>
<g transform="matrix(NaN NaN NaN NaN 0 0)"  >
<g style=""   >
</g>
</g>
<g transform="matrix(NaN NaN NaN NaN 0 0)"  >
<g style=""   >
</g>
</g>
<g transform="matrix(NaN NaN NaN NaN 0 0)"  >
<g style=""   >
</g>
</g>
<g transform="matrix(NaN NaN NaN NaN 0 0)"  >
<g style=""   >
</g>
</g>
<g transform="matrix(NaN NaN NaN NaN 0 0)"  >
<g style=""   >
</g>
</g>
<g transform="matrix(NaN NaN NaN NaN 0 0)"  >
<g style=""   >
</g>
</g>
<g transform="matrix(NaN NaN NaN NaN 0 0)"  >
<g style=""   >
</g>
</g>
</svg>